<svg xmlns="http://www.w3.org/2000/svg" viewBox="0 0 1200 400" width="1200" height="400">
  <defs>
    <linearGradient id="bg" x1="0%" y1="0%" x2="100%" y2="100%">
      <stop offset="0%" style="stop-color:#0f0f23"/>
      <stop offset="50%" style="stop-color:#1a1a3e"/>
      <stop offset="100%" style="stop-color:#0d1117"/>
    </linearGradient>
    <linearGradient id="accent" x1="0%" y1="0%" x2="100%" y2="0%">
      <stop offset="0%" style="stop-color:#00ff88"/>
      <stop offset="100%" style="stop-color:#00ccff"/>
    </linearGradient>
    <filter id="glow">
      <feGaussianBlur stdDeviation="3" result="blur"/>
      <feMerge><feMergeNode in="blur"/><feMergeNode in="SourceGraphic"/></feMerge>
    </filter>
  </defs>
  <rect width="1200" height="400" fill="url(#bg)"/>
  <!-- Grid pattern -->
  <g opacity="0.05" stroke="#00ff88" stroke-width="0.5">
    <line x1="0" y1="50" x2="1200" y2="50"/><line x1="0" y1="100" x2="1200" y2="100"/>
    <line x1="0" y1="150" x2="1200" y2="150"/><line x1="0" y1="200" x2="1200" y2="200"/>
    <line x1="0" y1="250" x2="1200" y2="250"/><line x1="0" y1="300" x2="1200" y2="300"/>
    <line x1="0" y1="350" x2="1200" y2="350"/>
    <line x1="100" y1="0" x2="100" y2="400"/><line x1="200" y1="0" x2="200" y2="400"/>
    <line x1="300" y1="0" x2="300" y2="400"/><line x1="400" y1="0" x2="400" y2="400"/>
    <line x1="500" y1="0" x2="500" y2="400"/><line x1="600" y1="0" x2="600" y2="400"/>
    <line x1="700" y1="0" x2="700" y2="400"/><line x1="800" y1="0" x2="800" y2="400"/>
    <line x1="900" y1="0" x2="900" y2="400"/><line x1="1000" y1="0" x2="1000" y2="400"/>
    <line x1="1100" y1="0" x2="1100" y2="400"/>
  </g>
  <!-- Shield icon -->
  <g transform="translate(100, 120)" filter="url(#glow)">
    <path d="M80 10 L150 40 L150 100 C150 145 120 170 80 185 C40 170 10 145 10 100 L10 40 Z" fill="none" stroke="url(#accent)" stroke-width="3"/>
    <path d="M60 95 L75 110 L105 75" fill="none" stroke="#00ff88" stroke-width="4" stroke-linecap="round" stroke-linejoin="round"/>
  </g>
  <!-- Title -->
  <text x="280" y="170" font-family="system-ui, -apple-system, sans-serif" font-size="56" font-weight="700" fill="white">claude-cybersecurity</text>
  <text x="280" y="215" font-family="system-ui, -apple-system, sans-serif" font-size="22" fill="#8b949e">AI-Powered Code Security Audit for Claude Code</text>
  <!-- Stats row -->
  <g transform="translate(280, 250)">
    <rect x="0" y="0" width="120" height="36" rx="18" fill="#00ff8820" stroke="#00ff88" stroke-width="1"/>
    <text x="60" y="23" font-family="monospace" font-size="13" fill="#00ff88" text-anchor="middle">8 Agents</text>
    <rect x="135" y="0" width="120" height="36" rx="18" fill="#00ccff20" stroke="#00ccff" stroke-width="1"/>
    <text x="195" y="23" font-family="monospace" font-size="13" fill="#00ccff" text-anchor="middle">25 CWEs</text>
    <rect x="270" y="0" width="140" height="36" rx="18" fill="#ff6b6b20" stroke="#ff6b6b" stroke-width="1"/>
    <text x="340" y="23" font-family="monospace" font-size="13" fill="#ff6b6b" text-anchor="middle">OWASP 2025</text>
    <rect x="425" y="0" width="150" height="36" rx="18" fill="#ffd93d20" stroke="#ffd93d" stroke-width="1"/>
    <text x="500" y="23" font-family="monospace" font-size="13" fill="#ffd93d" text-anchor="middle">11 Languages</text>
    <rect x="590" y="0" width="160" height="36" rx="18" fill="#c084fc20" stroke="#c084fc" stroke-width="1"/>
    <text x="670" y="23" font-family="monospace" font-size="13" fill="#c084fc" text-anchor="middle">MITRE ATT&amp;CK</text>
  </g>
  <!-- Bottom tagline -->
  <text x="280" y="340" font-family="system-ui, sans-serif" font-size="15" fill="#6e7681">Surpasses GitHub Advanced Security | Zero Configuration | Framework-Aware FP Suppression</text>
  <!-- Terminal cursor blink -->
  <rect x="280" y="355" width="8" height="16" fill="#00ff88" opacity="0.8">
    <animate attributeName="opacity" values="0.8;0;0.8" dur="1.2s" repeatCount="indefinite"/>
  </rect>
  <text x="295" y="368" font-family="monospace" font-size="13" fill="#6e7681">/cybersecurity --scope full</text>
</svg>
